<svg aria-hidden="true" style="position:absolute;width:0;height:0" xmlns="http://www.w3.org/2000/svg" overflow="hidden">
    <defs>
        <symbol id="moon" viewBox="0 0 32 32">
            <path fill="currentColor" d="M17.701 32a15.97 15.97 0 0012.429-5.925c.442-.544-.04-1.339-.723-1.209-7.763 1.478-14.891-4.474-14.891-12.31 0-4.514 2.416-8.665 6.344-10.9.605-.345.453-1.262-.235-1.389-.879-.17-1.89-.267-2.923-.268-8.832 0-16 7.157-16 16 0 8.832 7.157 16 16 16z"/>
        </symbol>
        <symbol id="sun" viewBox="0 0 32 32">
                <path fill="currentColor" d="M16 10c-3.306 0-6 2.694-6 6s2.694 6 6 6 6-2.694 6-6-2.694-6-6-6zm15.4 5.031l-5.919-2.956L27.575 5.8c.281-.85-.525-1.656-1.369-1.369l-6.275 2.094L16.969.6c-.4-.8-1.537-.8-1.938 0l-2.956 5.919-6.281-2.094c-.85-.281-1.656.525-1.369 1.369l2.094 6.275L.6 15.032c-.8.4-.8 1.538 0 1.938l5.919 2.956-2.094 6.281c-.281.85.525 1.656 1.369 1.369l6.275-2.094 2.956 5.919c.4.8 1.538.8 1.938 0l2.956-5.919 6.275 2.094c.85.281 1.656-.525 1.369-1.369l-2.094-6.275 5.919-2.956c.813-.406.813-1.544.012-1.944zm-9.744 6.625c-3.119 3.119-8.194 3.119-11.313 0s-3.119-8.194 0-11.313c3.119-3.119 8.194-3.119 11.313 0s3.119 8.194 0 11.313z"/>
        </symbol>
        <symbol id="linkedin" viewBox="0 0 32 32">
<path d="M29.63 0h-27.268c-1.304 0-2.362 1.033-2.362 2.306v27.385c0 1.274 1.058 2.309 2.362 2.309h27.268c1.305 0 2.37-1.035 2.37-2.309v-27.385c0-1.272-1.065-2.306-2.37-2.306zM9.491 27.268h-4.748v-15.271h4.748v15.271zM7.116 9.91c-0.361 0-0.719-0.071-1.053-0.21s-0.637-0.341-0.893-0.597c-0.255-0.256-0.458-0.559-0.596-0.893s-0.209-0.692-0.209-1.053c0-0.73 0.29-1.429 0.806-1.945s1.216-0.806 1.945-0.806 1.429 0.29 1.945 0.806c0.516 0.516 0.806 1.216 0.806 1.945s-0.29 1.43-0.806 1.946c-0.516 0.516-1.215 0.806-1.945 0.807v0zM27.267 27.268h-4.741v-7.426c0-1.772-0.035-4.049-2.467-4.049-2.47 0-2.847 1.929-2.847 3.921v7.555h-4.744v-15.271h4.553v2.085h0.065c0.634-1.2 2.182-2.466 4.492-2.466 4.803 0 5.69 3.162 5.69 7.275v8.376h-0z"></path>
</symbol>
<symbol id="github" viewBox="0 0 32 32">
<path d="M16.207 0c-8.95 0-16.207 7.257-16.207 16.209 0 7.161 4.643 13.236 11.084 15.378 0.811 0.15 1.106-0.349 1.106-0.78 0-0.384-0.014-1.403-0.021-2.757-4.509 0.98-5.46-2.173-5.46-2.173-0.737-1.872-1.8-2.37-1.8-2.37-1.472-1.005 0.112-0.985 0.112-0.985 1.627 0.115 2.483 1.67 2.483 1.67 1.445 2.477 3.794 1.76 4.717 1.348 0.147-1.049 0.566-1.762 1.029-2.168-3.599-0.409-7.382-1.799-7.382-8.010 0-1.77 0.631-3.217 1.668-4.35-0.166-0.408-0.723-2.056 0.159-4.288 0 0 1.361-0.436 4.458 1.663 1.292-0.361 2.679-0.542 4.057-0.547 1.376 0.006 2.764 0.186 4.057 0.547 3.095-2.098 4.453-1.663 4.453-1.663 0.884 2.233 0.327 3.88 0.161 4.288 1.039 1.133 1.666 2.58 1.666 4.35 0 6.225-3.789 7.596-7.399 7.996 0.581 0.501 1.1 1.492 1.1 3.004 0 2.166-0.020 3.913-0.020 4.445 0 0.434 0.291 0.939 1.114 0.778 6.434-2.146 11.074-8.217 11.074-15.376 0-8.952-7.257-16.209-16.209-16.209v0z"></path>
</symbol>
            </defs>
        </svg>