<svg aria-hidden="true" style="position:absolute;width:0;height:0" xmlns="http://www.w3.org/2000/svg" overflow="hidden">
    <defs>
        <symbol id="moon" viewBox="0 0 32 32">
            <path fill="currentColor" d="M17.701 32a15.97 15.97 0 0012.429-5.925c.442-.544-.04-1.339-.723-1.209-7.763 1.478-14.891-4.474-14.891-12.31 0-4.514 2.416-8.665 6.344-10.9.605-.345.453-1.262-.235-1.389-.879-.17-1.89-.267-2.923-.268-8.832 0-16 7.157-16 16 0 8.832 7.157 16 16 16z"/>
        </symbol>
        <symbol id="sun" viewBox="0 0 32 32">
                <path fill="currentColor" d="M16 10c-3.306 0-6 2.694-6 6s2.694 6 6 6 6-2.694 6-6-2.694-6-6-6zm15.4 5.031l-5.919-2.956L27.575 5.8c.281-.85-.525-1.656-1.369-1.369l-6.275 2.094L16.969.6c-.4-.8-1.537-.8-1.938 0l-2.956 5.919-6.281-2.094c-.85-.281-1.656.525-1.369 1.369l2.094 6.275L.6 15.032c-.8.4-.8 1.538 0 1.938l5.919 2.956-2.094 6.281c-.281.85.525 1.656 1.369 1.369l6.275-2.094 2.956 5.919c.4.8 1.538.8 1.938 0l2.956-5.919 6.275 2.094c.85.281 1.656-.525 1.369-1.369l-2.094-6.275 5.919-2.956c.813-.406.813-1.544.012-1.944zm-9.744 6.625c-3.119 3.119-8.194 3.119-11.313 0s-3.119-8.194 0-11.313c3.119-3.119 8.194-3.119 11.313 0s3.119 8.194 0 11.313z"/>
        </symbol>
        <symbol id="github" viewBox="0 0 32 32">
<path fill="#181616" style="fill: var(--color1, #181616)" d="M16 0.378c-5.873 0-10.636 4.762-10.636 10.636 0 4.699 3.047 8.686 7.274 10.092 0.531 0.099 0.727-0.231 0.727-0.512 0-0.253-0.010-1.091-0.014-1.98-2.959 0.643-3.583-1.255-3.583-1.255-0.484-1.23-1.181-1.556-1.181-1.556-0.965-0.66 0.072-0.646 0.072-0.646 1.068 0.075 1.631 1.096 1.631 1.096 0.948 1.626 2.488 1.156 3.095 0.884 0.096-0.688 0.371-1.157 0.675-1.422-2.362-0.269-4.846-1.181-4.846-5.256 0-1.161 0.415-2.11 1.096-2.855-0.111-0.268-0.475-1.35 0.103-2.815 0 0 0.893-0.285 2.925 1.091 0.849-0.236 1.759-0.354 2.662-0.358 0.904 0.004 1.815 0.122 2.664 0.358 2.030-1.376 2.922-1.091 2.922-1.091 0.579 1.465 0.215 2.547 0.105 2.815 0.682 0.745 1.095 1.694 1.095 2.855 0 4.085-2.488 4.984-4.857 5.248 0.381 0.33 0.721 0.977 0.721 1.97 0 1.423-0.012 2.568-0.012 2.919 0 0.282 0.192 0.614 0.73 0.51 4.224-1.408 7.267-5.393 7.267-10.091 0-5.873-4.761-10.635-10.636-10.635z"></path>
<path fill="#181616" style="fill: var(--color1, #181616)" d="M9.393 15.649c-0.024 0.053-0.107 0.069-0.182 0.033-0.078-0.035-0.12-0.107-0.095-0.16 0.023-0.054 0.106-0.069 0.183-0.033 0.078 0.035 0.121 0.107 0.095 0.161zM9.823 16.13c-0.051 0.047-0.15 0.025-0.217-0.049-0.069-0.074-0.082-0.174-0.031-0.221s0.148-0.025 0.217 0.049c0.070 0.075 0.084 0.173 0.031 0.221zM10.242 16.742c-0.065 0.046-0.172 0.003-0.238-0.092s-0.066-0.207 0.001-0.253c0.066-0.046 0.171-0.005 0.238 0.089 0.066 0.096 0.066 0.21-0.001 0.256zM10.817 17.334c-0.058 0.064-0.182 0.047-0.273-0.041-0.093-0.086-0.119-0.207-0.060-0.272s0.184-0.046 0.275 0.041c0.092 0.085 0.12 0.207 0.058 0.271zM11.61 17.677c-0.026 0.084-0.146 0.121-0.266 0.086-0.12-0.037-0.199-0.134-0.175-0.218 0.025-0.084 0.146-0.123 0.267-0.085 0.12 0.036 0.199 0.133 0.174 0.218zM12.48 17.741c0.003 0.087-0.099 0.16-0.226 0.162-0.127 0.003-0.23-0.068-0.232-0.154 0-0.088 0.1-0.16 0.227-0.163s0.23 0.068 0.23 0.155zM13.29 17.604c0.015 0.085-0.072 0.174-0.198 0.197-0.123 0.023-0.238-0.030-0.254-0.115-0.015-0.087 0.074-0.175 0.197-0.198 0.126-0.022 0.238 0.029 0.254 0.116z"></path>
<path fill="#100e0f" style="fill: var(--color2, #100e0f)" d="M6.214 27.076h-2.675c-0.069 0-0.125 0.056-0.125 0.125v0 1.308c0 0.069 0.056 0.125 0.125 0.125v0h1.043v1.625s-0.234 0.080-0.882 0.080c-0.764 0-1.832-0.279-1.832-2.627s1.112-2.657 2.156-2.657c0.904 0 1.293 0.159 1.54 0.236 0.077 0.023 0.15-0.054 0.15-0.123l0.298-1.264c0-0.001 0-0.002 0-0.003 0-0.039-0.019-0.073-0.048-0.094l-0-0c-0.101-0.072-0.714-0.415-2.264-0.415-1.786 0-3.618 0.759-3.618 4.412s2.098 4.197 3.865 4.197c1.464 0 2.351-0.625 2.351-0.625 0.037-0.020 0.040-0.071 0.040-0.095v-4.079c0-0.069-0.056-0.125-0.125-0.125v0zM19.877 23.703h-1.506c-0.069 0-0.125 0.056-0.125 0.125 0 0 0 0.001 0 0.001v-0l0 2.911h-2.348v-2.911c0-0 0-0 0-0.001 0-0.069-0.056-0.125-0.124-0.125h-1.506c-0.069 0-0.124 0.056-0.124 0.125 0 0 0 0.001 0 0.001v-0 7.883c0 0.069 0.056 0.126 0.124 0.126h1.506c0.069-0 0.124-0.056 0.124-0.125 0-0 0-0.001 0-0.001v0-3.372h2.348l-0.004 3.372c0 0.070 0.056 0.126 0.125 0.126h1.509c0.069-0 0.124-0.056 0.124-0.125 0-0 0-0.001 0-0.001v0-7.883c0-0.070-0.055-0.125-0.124-0.125zM8.085 23.882c-0.536 0-0.971 0.438-0.971 0.981s0.435 0.981 0.971 0.981c0.537 0 0.971-0.439 0.971-0.981s-0.435-0.981-0.971-0.981zM8.824 26.284h-1.502c-0.069 0-0.13 0.071-0.13 0.14v5.213c0 0.153 0.096 0.199 0.219 0.199h1.353c0.149 0 0.185-0.073 0.185-0.201v-5.225c0-0 0-0 0-0 0-0.069-0.056-0.125-0.124-0.125h-0zM25.726 26.296h-1.495c-0.069 0.001-0.124 0.056-0.124 0.125 0 0 0 0.001 0 0.001v-0 3.865s-0.38 0.277-0.919 0.277-0.682-0.244-0.682-0.772v-3.37c0-0 0-0.001 0-0.001 0-0.069-0.056-0.125-0.124-0.125h-1.517c-0.069 0.001-0.125 0.057-0.125 0.125 0 0 0 0 0 0.001v-0 3.625c0 1.567 0.874 1.951 2.076 1.951 0.986 0 1.781-0.545 1.781-0.545s0.038 0.288 0.055 0.321c0.017 0.034 0.062 0.068 0.11 0.068l0.965-0.004c0.069-0 0.125-0.056 0.125-0.125 0-0 0-0 0-0.001v0l-0.001-5.291c-0-0.069-0.056-0.125-0.125-0.125h-0zM29.811 26.119c-0.849 0-1.427 0.379-1.427 0.379v-2.669c0-0 0-0 0-0.001 0-0.069-0.056-0.125-0.124-0.125h-1.51c0 0 0 0 0 0-0.069 0-0.125 0.056-0.125 0.125 0 0 0 0.001 0 0.001v-0 7.883c0 0 0 0 0 0.001 0 0.069 0.056 0.125 0.125 0.125 0 0 0 0 0 0h1.048c0.047 0 0.083-0.024 0.109-0.067s0.064-0.363 0.064-0.363 0.617 0.585 1.787 0.585c1.372 0 2.16-0.696 2.16-3.125s-1.258-2.747-2.107-2.747zM29.221 30.559c-0.518-0.016-0.87-0.251-0.87-0.251v-2.496s0.347-0.212 0.773-0.251c0.538-0.048 1.057 0.114 1.057 1.398 0 1.354-0.234 1.622-0.959 1.599zM13.299 30.53c-0.066 0-0.234 0.027-0.408 0.027-0.555 0-0.743-0.258-0.743-0.592v-2.216h1.13c0 0 0 0 0 0 0.069 0 0.125-0.056 0.125-0.125 0-0 0-0.001 0-0.001v0-1.214c0-0 0-0 0-0 0-0.069-0.056-0.125-0.125-0.125 0 0 0 0 0 0h-1.13l-0.002-1.492c0-0.057-0.029-0.085-0.095-0.085h-1.54c-0.059 0-0.092 0.026-0.092 0.084v1.543s-0.772 0.186-0.824 0.201c-0.052 0.016-0.090 0.063-0.090 0.12v0.969c0 0 0 0 0 0.001 0 0.069 0.056 0.125 0.124 0.125h0.79v2.332c0 1.733 1.215 1.902 2.035 1.902 0.374 0 0.822-0.12 0.896-0.148 0.045-0.017 0.071-0.063 0.071-0.113l0.001-1.066c-0.001-0.069-0.056-0.124-0.125-0.125h-0z"></path>
        </symbol>
<symbol id="linkedin" viewBox="0 0 64 32">
<path  d="M10.772 18.904v1.971h-6.090v-9.749h2.136v7.779zM11.715 14.263h2.053v6.611h-2.053zM12.742 10.979c0.657 0 1.19 0.533 1.191 1.19v0c0 0.658-0.533 1.19-1.191 1.19s-1.19-0.532-1.19-1.19c0-0.657 0.533-1.19 1.19-1.19h0zM26.725 14.262h2.513l-2.694 3.057 2.638 3.555h-2.577l-2.178-3.266h-0.026v3.266h-2.052v-9.75h2.052v5.827zM14.903 14.266h1.97v0.906h0.027c0.273-0.52 0.944-1.067 1.943-1.067 2.080 0 2.463 1.368 2.463 3.147v3.623h-2.052v-3.214c0-0.767-0.014-1.751-1.068-1.751-1.067 0-1.231 0.835-1.231 1.697v3.267h-2.053v-6.606zM33.562 16.801c0.014-0.684-0.52-1.259-1.26-1.259-0.903 0-1.396 0.616-1.45 1.259zM35.299 19.728c-0.657 0.835-1.737 1.314-2.808 1.314-2.052 0-3.694-1.369-3.694-3.49s1.642-3.487 3.694-3.487c1.917 0 3.12 1.368 3.12 3.487v0.643h-4.762c0.163 0.78 0.752 1.286 1.546 1.286 0.671 0 1.122-0.34 1.464-0.808zM39.889 15.863c-1.026 0-1.641 0.685-1.641 1.683 0 1 0.616 1.683 1.641 1.683 1.027 0 1.643-0.683 1.643-1.683-0-0.998-0.616-1.683-1.643-1.683zM43.421 20.871h-1.889v-0.876h-0.027c-0.316 0.479-1.109 1.040-2.040 1.040-1.971 0-3.271-1.423-3.271-3.435 0-1.848 1.149-3.544 3.038-3.544 0.849 0 1.643 0.233 2.106 0.876h0.027v-3.807h2.054z"></path>
<path fill="#0177b5" style="fill: var(--color4, #0177b5)" d="M58.293 9.078h-11.798c-0.566 0-1.022 0.447-1.022 0.998v11.848c0 0.551 0.458 0.998 1.022 0.998h11.798c0.565 0 1.025-0.447 1.025-0.998v-11.848c0-0.551-0.46-0.998-1.025-0.998z"></path>
<path fill="#fff" style="fill: var(--color5, #fff)" d="M47.526 14.268h2.054v6.607h-2.054zM48.553 10.984c0.657 0.001 1.189 0.533 1.19 1.19v0c-0 0.657-0.533 1.19-1.19 1.191h-0c-0.658 0-1.191-0.533-1.191-1.191v0c0-0.657 0.533-1.19 1.191-1.19v0zM50.867 14.268h1.969v0.9h0.027c0.272-0.519 0.944-1.067 1.943-1.067 2.079 0 2.463 1.368 2.463 3.147v3.624h-2.052v-3.215c0-0.766-0.014-1.752-1.067-1.752-1.069 0-1.232 0.835-1.232 1.696v3.268h-2.051v-6.607z"></path>
</symbol>
            </defs>
        </svg>