<svg width="78" height="77" viewBox="0 0 78 77" fill="none" xmlns="http://www.w3.org/2000/svg">
<path fill-rule="evenodd" clip-rule="evenodd" d="M38.998 0C17.461 0 0 17.462 0 39.002C0 56.233 11.172 70.851 26.671 76.005C28.623 76.366 29.333 75.165 29.333 74.128C29.333 73.204 29.299 70.753 29.282 67.495C18.433 69.854 16.144 62.266 16.144 62.266C14.37 57.761 11.813 56.563 11.813 56.563C8.272 54.145 12.082 54.192 12.082 54.192C15.996 54.469 18.056 58.21 18.056 58.21C21.534 64.17 27.185 62.445 29.406 61.453C29.759 58.928 30.769 57.213 31.882 56.236C23.223 55.252 14.119 51.906 14.119 36.962C14.119 32.703 15.638 29.221 18.132 26.494C17.733 25.512 16.392 21.547 18.515 16.175C18.515 16.175 21.789 15.127 29.241 20.176C32.35 19.307 35.687 18.873 39.004 18.86C42.316 18.874 45.654 19.307 48.767 20.176C56.214 15.127 59.483 16.175 59.483 16.175C61.611 21.547 60.271 25.512 59.871 26.494C62.371 29.221 63.879 32.703 63.879 36.962C63.879 51.941 54.762 55.241 46.074 56.203C47.472 57.408 48.72 59.793 48.72 63.432C48.72 68.643 48.673 72.848 48.673 74.127C48.673 75.172 49.374 76.387 51.354 76C66.836 70.835 78 56.228 78 39.002C78 17.462 60.539 0 38.998 0V0Z" fill="black"/>
</svg>
