<svg width="72" height="72" viewBox="0 0 72 72" fill="none" xmlns="http://www.w3.org/2000/svg">
<path d="M66.667 0H5.315C2.381 0 0 2.325 0 5.188V66.805C0 69.672 2.381 72 5.315 72H66.667C69.603 72 72 69.672 72 66.805V5.188C72 2.325 69.603 0 66.667 0ZM21.354 61.354H10.67V26.995H21.354V61.354ZM16.012 22.297C15.1988 22.297 14.3935 22.1368 13.6423 21.8254C12.891 21.5141 12.2084 21.0578 11.6336 20.4826C11.0587 19.9074 10.6029 19.2245 10.292 18.473C9.9812 17.7216 9.82147 16.9162 9.822 16.103C9.822 14.4614 10.4741 12.8871 11.6349 11.7264C12.7956 10.5656 14.3699 9.9135 16.0115 9.9135C17.6531 9.9135 19.2274 10.5656 20.3881 11.7264C21.5489 12.8871 22.201 14.4614 22.201 16.103C22.201 17.7449 21.5491 19.3196 20.3886 20.4811C19.2281 21.6425 17.6539 22.2957 16.012 22.297V22.297ZM61.35 61.354H50.683V44.646C50.683 40.66 50.605 35.535 45.132 35.535C39.574 35.535 38.727 39.876 38.727 44.357V61.355H28.052V26.995H38.297V31.687H38.443C39.869 28.987 43.353 26.138 48.549 26.138C59.355 26.138 61.351 33.252 61.351 42.507V61.354H61.35Z" fill="black"/>
</svg>
